#format: frame checksums
#version: 2
#hash: MD5
#extradata 0,                              42, e89deaac1c1a77d78033d7d9c66b8264
#tb 0: 1/61440
#media_type 0: video
#codec_id 0: ffv1
#dimensions 0: 320x180
#sar 0: 0/1
#stream#, dts,        pts, duration,     size, hash
0,          0,          0,     4096,      504, de26a1fa1fca4a206b6d04f8a99d202e
0,       4096,       4096,     4096,      504, de26a1fa1fca4a206b6d04f8a99d202e
0,       8192,       8192,     4096,      517, ac29209c509c26f2b0ae1379144eae5c
0,      12288,      12288,     4096,      517, ea14ce9687381ff17bc89099c8dd4c8c
0,      16384,      16384,     4096,      517, 5c7054b3fc4ed7d9ca20adab59c03e90
0,      20480,      20480,     4096,      517, e7ba39387e7a0b121eb459387f1e4d24
0,      24576,      24576,     4096,      517, e68560dec9232250d08c12eb90feb002
0,      28672,      28672,     4096,      517, a76e3de13d6d1d9226551330024856ad
0,      32768,      32768,     4096,      517, 84e1846d69092427b3cba74d5070f558
0,      36864,      36864,     4096,      517, f830296c405be2083ec6c824fc0acd15
0,      40960,      40960,     4096,      539, cecc29908e2c04c62aba33faeced9021
0,      45056,      45056,     4096,      536, 0f52f48bc0e95fd3b3de38a72aa3d59f
0,      49152,      49152,     4096,      533, cd153cf0444a30dbe702aee31e2fcacb
0,      53248,      53248,     4096,      528, f4585c81df1d1aa8f238f32dc0b0a442
0,      57344,      57344,     4096,      534, 1decbd39c11fe1bcf05d3957e37fb86f
0,      61440,      61440,     4096,      540, 8708cf1ad38d8a0afef1049bc2e8faac
0,      65536,      65536,     4096,      543, 2ed0e45b2d4a0928cb18bd4fdc15eab1
0,      69632,      69632,     4096,      546, 398467431f34fc57019ae30414ead7f5
0,      73728,      73728,     4096,      573, 8b628f14416733f78433b6dfa5a2661d
0,      77824,      77824,     4096,      567, 42396a32eb9a4b5cf79d2540a2740574
0,      81920,      81920,     4096,      561, f77a702616429f1c72ca928f40a8e847
0,      86016,      86016,     4096,      517, 10b98739d697184d0f1aded2340f82ce
0,      90112,      90112,     4096,      517, e77151489d60d411587a0814e6dc5cd9
0,      94208,      94208,     4096,      517, 4468b1d20c5ffaa5cc22fa8b2d009b91
0,      98304,      98304,     4096,      517, 7154ff813827ea023b630afaebc34df8
0,     102400,     102400,     4096,      517, b146c8726b10dccb3368d2a18a804579
0,     106496,     106496,     4096,      517, cff5688c8d168dfc60b2d179e13f65a5
0,     110592,     110592,     4096,      517, 7b35b61a595074bbc78875ae73539cf8
0,     114688,     114688,     4096,      517, f32db1c41fbabf6e02ff35c0e53d6c5a
0,     118784,     118784,     4096,      517, 264b7f2008f92f3e2ad70e354e53ba27
0,     122880,     122880,     4096,      464, 3ff5346c3463b48fb673763c2878bd4f
